<?xml version="1.0" standalone="no"?>
<!DOCTYPE svg PUBLIC "-//W3C//DTD SVG 20010904//EN"
 "http://www.w3.org/TR/2001/REC-SVG-20010904/DTD/svg10.dtd">
<svg version="1.0" xmlns="http://www.w3.org/2000/svg"
 width="245.000000pt" height="188.000000pt" viewBox="0 0 245.000000 188.000000"
 preserveAspectRatio="xMidYMid meet">
<metadata>
Created by potrace 1.12, written by Peter Selinger 2001-2015
</metadata>
<g transform="translate(0.000000,188.000000) scale(0.100000,-0.100000)"
fill="#000000" stroke="none">
<path d="M1144 1456 c-5 -12 -11 -13 -29 -4 -51 23 -105 -27 -105 -97 0 -13
-18 -45 -40 -71 -22 -27 -40 -52 -40 -57 0 -4 -11 -20 -25 -35 -29 -31 -32
-57 -9 -70 13 -7 13 -13 3 -35 -9 -21 -9 -30 1 -42 17 -21 31 -19 74 10 36 24
38 25 61 8 14 -10 25 -21 25 -24 0 -3 13 -22 29 -42 23 -30 29 -47 30 -93 1
-76 17 -129 51 -179 33 -48 80 -70 160 -74 30 -1 58 -6 61 -9 3 -4 4 -30 1
-58 -4 -49 -6 -53 -53 -84 -36 -23 -49 -38 -49 -56 0 -19 5 -24 24 -24 13 0
29 7 36 15 17 21 40 19 40 -4 0 -10 7 -24 16 -32 23 -19 50 1 47 36 -2 25 0
27 28 21 25 -5 36 1 74 38 25 24 45 38 45 32 0 -6 8 -20 16 -31 14 -18 17 -18
27 -4 7 8 20 18 31 22 27 10 14 65 -23 97 -40 35 -62 128 -37 162 104 143 134
238 106 339 -6 20 -19 44 -31 55 -22 20 -108 34 -229 37 -41 1 -80 6 -86 10
-7 4 -15 22 -18 42 -5 26 -20 46 -62 80 -31 25 -60 45 -65 45 -5 0 -9 7 -9 16
0 23 -39 74 -56 74 -8 0 -17 -6 -20 -14z m-51 -59 c6 -16 -29 -41 -38 -28 -3
5 2 17 11 25 19 19 21 20 27 3z m90 -78 c50 -14 113 -71 128 -117 15 -46 29
-60 64 -64 22 -2 29 -9 30 -26 2 -21 19 -41 36 -42 4 0 9 9 12 20 8 31 52 43
114 30 52 -11 59 -19 53 -59 -1 -8 1 -30 5 -49 5 -28 10 -33 26 -29 16 4 19 2
14 -16 -4 -12 -9 -31 -12 -42 -9 -31 -79 -121 -117 -150 -73 -56 -202 -83
-259 -54 -27 14 -77 67 -87 94 -4 11 -10 54 -14 95 -6 62 -14 85 -43 130 -20
31 -53 68 -75 84 -50 36 -70 81 -53 116 16 31 48 61 83 77 35 15 49 15 95 2z
m374 -674 c11 -41 10 -52 0 -60 -7 -5 -20 -25 -28 -42 -7 -18 -16 -33 -20 -33
-3 0 -18 13 -33 29 -27 28 -28 33 -21 86 5 45 11 58 28 65 44 18 61 8 74 -45z"/>
<path d="M1092 1269 c-25 -22 -26 -32 -12 -60 22 -40 50 -17 50 41 0 38 -12
44 -38 19z"/>
<path d="M1376 1037 c-52 -29 -84 -73 -68 -89 10 -10 19 -9 45 5 33 18 44 16
94 -16 20 -12 -14 -57 -43 -57 -31 0 -41 -20 -19 -37 43 -31 87 -12 113 50 19
44 14 67 -18 95 -16 15 -30 34 -30 43 0 9 -7 20 -16 23 -19 7 -12 9 -58 -17z"/>
</g>
</svg>
